<svg width="119" height="37" viewBox="0 0 119 37" fill="none" xmlns="http://www.w3.org/2000/svg">
<g clip-path="url(#clip0_2_36)">
<path d="M92.6998 19.7369C98.5798 16.0479 97.8398 9.47972 96.3598 6.58251C94.0398 2.05673 88.3498 -0.0756934 80.7899 0.617119C82.8898 1.58886 85.3298 3.6583 85.6598 5.09791C85.6598 5.09791 85.7298 7.08637 86.6598 7.7342C87.5898 8.39102 89.3198 9.09283 88.4698 9.64168C87.6298 10.1905 87.3298 10.5594 87.4298 10.9643C87.5198 11.3692 87.7698 11.7111 87.7598 12.062C87.7598 12.089 87.7598 12.116 87.7398 12.143C87.6998 12.269 87.5998 12.4129 87.4898 12.5119C87.0398 12.9168 87.3098 13.2947 87.3598 13.4836C87.4198 13.7176 88.2798 14.7433 87.1098 15.2022C85.9398 15.6611 85.7298 15.697 85.1398 16.021C84.3298 16.4618 84.0198 16.7678 83.3798 17.8205C82.5598 19.0891 81.8498 19.557 80.8099 20.0879C84.1698 21.4015 87.1698 22.9221 87.7398 28.4736C88.1598 32.5585 89.3498 34.7449 90.4598 35.5637C93.2398 37.6061 98.6198 35.9146 102.26 36.6074C100.08 34.187 98.0998 31.2988 97.7298 29.0044C97.0798 25.0455 97.0098 22.0043 92.7198 19.7369H92.6998Z" fill="#F9F5ED"/>
<path d="M17.91 0.626593C17.91 0.626593 36.08 16.5433 17.91 36.6259C17.91 36.6259 36.98 36.5899 36.98 18.5677C36.98 0.545616 17.91 0.626593 17.91 0.626593Z" fill="#F9F5ED"/>
<path d="M0 36.6079H10.03V0.599609H0V36.6079Z" fill="#F9F5ED"/>
<path d="M44.8599 36.6079H54.8899V0.599609H44.8599V36.6079Z" fill="#F9F5ED"/>
<path d="M108.84 36.6079H118.87V0.599609H108.84V36.6079Z" fill="#F9F5ED"/>
<path d="M62.9 36.6079H72.9299V0.599609H62.9V36.6079Z" fill="#F9F5ED"/>
</g>
<defs>
<clipPath id="clip0_2_36">
<rect width="118.87" height="36.1432" fill="white" transform="translate(0 0.491455)"/>
</clipPath>
</defs>
</svg>
